<?xml version="1.0" encoding="UTF-8"?>
<!DOCTYPE svg PUBLIC "-//W3C//DTD SVG 1.1//EN" "http://www.w3.org/Graphics/SVG/1.1/DTD/svg11.dtd">
<!-- Creator: CorelDRAW 2020 (64 Bit) -->
<svg xmlns="http://www.w3.org/2000/svg" xml:space="preserve" width="49mm" height="9mm" version="1.1" style="shape-rendering:geometricPrecision; text-rendering:geometricPrecision; image-rendering:optimizeQuality; fill-rule:evenodd; clip-rule:evenodd"
viewBox="0 0 4900 900"
 xmlns:xlink="http://www.w3.org/1999/xlink"
 xmlns:xodm="http://www.corel.com/coreldraw/odm/2003">
 <defs>
  <style type="text/css">
   <![CDATA[
    .fil0 {fill:red;fill-rule:nonzero}
   ]]>
  </style>
 </defs>
 <g id="Camada_x0020_1">
  <metadata id="CorelCorpID_0Corel-Layer"/>
  <path class="fil0" d="M56.54 858.1c-3.07,0 -4.61,-1.92 -4.61,-5.75l2.3 -790.29c0,-3.07 1.54,-4.6 4.61,-4.6l140.34 0c3.07,0 5.75,1.53 8.05,4.6l104.68 151.84 104.68 -151.84c2.31,-3.07 4.99,-4.6 8.06,-4.6l141.49 0c3.07,0 4.6,1.53 4.6,4.6l2.3 790.29c0,3.83 -1.53,5.75 -4.6,5.75l-129.99 0c-3.07,0 -4.6,-1.92 -4.6,-5.75l-1.15 -586.68 -120.79 174.85 -119.63 -174.85 -1.15 586.68c0,3.83 -1.54,5.75 -4.61,5.75l-129.98 0zm617.74 0c-3.07,0 -4.61,-1.92 -4.61,-5.75l1.15 -790.29c0,-3.07 1.54,-4.6 4.61,-4.6l369.26 0c3.07,0 4.6,1.91 4.6,5.75l0 128.84c0,3.06 -1.53,4.6 -4.6,4.6l-235.82 0 0 179.45 235.82 0c3.07,0 4.6,1.54 4.6,4.6l1.15 129.99c0,3.07 -1.53,4.61 -4.6,4.61l-236.97 0 0 201.31 236.97 0c3.07,0 4.6,1.91 4.6,5.75l0 131.14c0,3.07 -1.53,4.6 -4.6,4.6l-371.56 0zm690.21 11.5c-40.65,0 -78.23,-10.54 -112.74,-31.63 -34.51,-21.09 -61.92,-49.27 -82.25,-84.55 -20.32,-35.28 -30.48,-74.01 -30.48,-116.19l2.3 -575.17c0,-3.07 1.53,-4.6 4.6,-4.6l128.84 0c3.07,0 4.6,1.53 4.6,4.6l0 575.17c0,26.08 8.25,48.13 24.74,66.15 16.48,18.02 36.61,27.03 60.39,27.03 24.54,0 45.05,-9.01 61.54,-27.03 16.49,-18.02 24.73,-40.07 24.73,-66.15l0 -575.17c0,-3.07 1.54,-4.6 4.61,-4.6l128.84 0c3.06,0 4.6,1.53 4.6,4.6l2.3 575.17c0,42.95 -10.16,82.06 -30.49,117.34 -20.32,35.28 -47.54,63.27 -81.67,83.97 -34.13,20.71 -72.28,31.06 -114.46,31.06zm602.78 -11.5c-3.07,0 -4.6,-1.92 -4.6,-5.75l0 -655.7 -149.55 0c-3.83,0 -5.75,-1.92 -5.75,-5.75l1.15 -128.84c0,-3.07 1.53,-4.6 4.6,-4.6l437.14 0c3.83,0 5.75,1.53 5.75,4.6l0 128.84c0,3.83 -1.54,5.75 -4.6,5.75l-150.7 0 1.15 655.7c0,3.83 -1.53,5.75 -4.6,5.75l-129.99 0zm349.71 0c-3.07,0 -4.61,-1.92 -4.61,-5.75l2.3 -790.29c0,-3.07 1.54,-4.6 4.61,-4.6l232.37 0c41.41,0 79.56,10.16 114.46,30.48 34.89,20.32 62.69,47.55 83.4,81.68 20.7,34.12 31.06,72.66 31.06,115.61 0,28.37 -4.22,53.87 -12.66,76.49 -8.43,22.63 -18.4,41.8 -29.91,57.52 -11.5,15.72 -21.85,27.42 -31.06,35.09 41.42,46.01 62.12,100.08 62.12,162.2l1.15 235.82c0,3.83 -1.91,5.75 -5.75,5.75l-129.99 0c-3.07,0 -4.6,-1.15 -4.6,-3.45l0 -238.12c0,-27.61 -9.78,-51.58 -29.33,-71.9 -19.56,-20.32 -43.52,-30.48 -71.9,-30.48l-75.92 0 -1.15 338.2c0,3.83 -1.54,5.75 -4.61,5.75l-129.98 0zm135.74 -482l98.93 0c23.77,0 44.86,-8.82 63.27,-26.45 18.4,-17.64 27.6,-39.12 27.6,-64.42 0,-24.55 -9.01,-45.63 -27.03,-63.27 -18.02,-17.64 -39.3,-26.46 -63.84,-26.46l-98.93 0 0 180.6zm418.73 482c-3.07,0 -4.61,-1.92 -4.61,-5.75l1.15 -790.29c0,-3.07 1.54,-4.6 4.61,-4.6l369.26 0c3.07,0 4.6,1.91 4.6,5.75l0 128.84c0,3.06 -1.53,4.6 -4.6,4.6l-235.82 0 0 179.45 235.82 0c3.07,0 4.6,1.54 4.6,4.6l1.15 129.99c0,3.07 -1.53,4.61 -4.6,4.61l-236.97 0 0 201.31 236.97 0c3.07,0 4.6,1.91 4.6,5.75l0 131.14c0,3.07 -1.53,4.6 -4.6,4.6l-371.56 0zm671.8 11.5c-42.18,0 -80.33,-10.54 -114.46,-31.63 -34.13,-21.09 -61.16,-49.27 -81.1,-84.55 -19.94,-35.28 -29.91,-74.77 -29.91,-118.49l1.15 -358.91c0,-42.18 9.78,-80.71 29.33,-115.61 19.56,-34.89 46.4,-62.88 80.53,-83.97 34.13,-21.09 72.28,-31.64 114.46,-31.64 42.18,0 80.14,10.36 113.88,31.06 33.75,20.71 60.59,48.51 80.53,83.4 19.94,34.9 29.91,73.82 29.91,116.76l0 52.92c0,3.07 -1.54,4.6 -4.6,4.6l-128.84 0c-3.07,0 -4.61,-1.53 -4.61,-4.6l0 -52.92c0,-25.3 -8.24,-47.16 -24.73,-65.57 -16.49,-18.4 -37,-27.61 -61.54,-27.61 -27.61,0 -48.7,9.4 -63.27,28.19 -14.57,18.79 -21.86,40.45 -21.86,64.99l0 358.91c0,28.38 8.25,51.38 24.74,69.02 16.48,17.64 36.61,26.46 60.39,26.46 24.54,0 45.05,-9.78 61.54,-29.33 16.49,-19.56 24.73,-41.61 24.73,-66.15l0 -52.91c0,-3.07 1.54,-4.61 4.61,-4.61l129.99 0c3.06,0 4.6,1.54 4.6,4.61l0 52.91c0,43.72 -10.16,83.21 -30.49,118.49 -20.32,35.28 -47.35,63.46 -81.1,84.55 -33.74,21.09 -71.7,31.63 -113.88,31.63zm314.05 -11.5c-3.07,0 -4.61,-1.92 -4.61,-5.75l1.15 -790.29c0,-3.07 1.92,-4.6 5.76,-4.6l127.68 0c3.84,0 5.76,1.53 5.76,4.6l-1.15 312.89 172.55 0 0 -312.89c0,-3.07 1.53,-4.6 4.6,-4.6l127.69 0c3.83,0 5.75,1.53 5.75,4.6l2.3 790.29c0,3.83 -1.92,5.75 -5.75,5.75l-128.84 0c-3.83,0 -5.75,-1.92 -5.75,-5.75l0 -338.2 -172.55 0 0 338.2c0,3.83 -1.54,5.75 -4.61,5.75l-129.98 0zm754.63 11.5c-41.41,0 -79.18,-10.54 -113.31,-31.63 -34.13,-21.09 -61.54,-49.08 -82.25,-83.98 -20.71,-34.89 -31.06,-73.43 -31.06,-115.61l1.15 -364.66c0,-42.18 10.16,-80.52 30.48,-115.03 20.33,-34.51 47.74,-62.12 82.25,-82.83 34.51,-20.7 72.09,-31.06 112.74,-31.06 41.41,0 78.99,10.36 112.73,31.06 33.75,20.71 60.78,48.32 81.1,82.83 20.33,34.51 30.49,72.85 30.49,115.03l1.15 364.66c0,42.18 -10.16,80.72 -30.49,115.61 -20.32,34.9 -47.54,62.89 -81.67,83.98 -34.13,21.09 -71.9,31.63 -113.31,31.63zm0 -139.19c23.01,0 43.14,-9.39 60.39,-28.18 17.26,-18.79 25.88,-40.07 25.88,-63.85l-1.15 -364.66c0,-25.31 -8.05,-46.78 -24.15,-64.42 -16.11,-17.64 -36.43,-26.46 -60.97,-26.46 -23.78,0 -44.1,8.63 -60.97,25.89 -16.87,17.25 -25.31,38.92 -25.31,64.99l0 364.66c0,25.31 8.44,46.98 25.31,65 16.87,18.02 37.19,27.03 60.97,27.03z"/>
 </g>
</svg>
