<svg width="271" height="275" viewBox="0 0 271 275" fill="none" xmlns="http://www.w3.org/2000/svg">
<g opacity="0.0204599">
<path d="M135.153 2C208.64 2 268.306 62.5492 268.306 137.124C268.306 211.699 208.64 272.248 135.153 272.248C61.6659 272.248 2 211.699 2 137.124C2 62.5492 61.6659 2 135.153 2Z" stroke="#9D270E" stroke-width="3.87038" stroke-linecap="round"/>
</g>
<g opacity="0.2">
<path d="M135.145 43.3366C186.197 43.3366 227.647 85.4003 227.647 137.208C227.647 189.015 186.197 231.079 135.145 231.079C84.0936 231.079 42.6436 189.015 42.6436 137.208C42.6436 85.4003 84.0936 43.3366 135.145 43.3366Z" stroke="#9D270E" stroke-width="4.48127" stroke-linecap="round"/>
</g>
<path d="M135.725 55.029C180.14 55.029 216.202 91.6245 216.202 136.697C216.202 181.77 180.14 218.365 135.725 218.365C91.3102 218.365 55.2485 181.77 55.2485 136.697C55.2485 91.6245 91.3102 55.029 135.725 55.029Z" fill="url(#paint0_linear)"/>
<path d="M135.725 55.029C180.14 55.029 216.202 91.6245 216.202 136.697C216.202 181.77 180.14 218.365 135.725 218.365C91.3102 218.365 55.2485 181.77 55.2485 136.697C55.2485 91.6245 91.3102 55.029 135.725 55.029Z" fill="url(#paint1_linear)"/>
<path d="M96.4762 141.092C96.4762 141.092 119.735 166.17 119.735 164.695C119.735 163.219 174.974 108.638 174.974 108.638" fill="url(#paint2_linear)"/>
<path d="M96.4762 141.092C96.4762 141.092 119.735 166.17 119.735 164.695C119.735 163.219 174.974 108.638 174.974 108.638" stroke="white" stroke-width="18.8046" stroke-linecap="round" stroke-linejoin="round"/>
<defs>
<linearGradient id="paint0_linear" x1="216.202" y1="55.029" x2="50.0471" y2="216.857" gradientUnits="userSpaceOnUse">
<stop stop-color="#DD7C13"/>
<stop offset="1" stop-color="#DD1313"/>
</linearGradient>
<linearGradient id="paint1_linear" x1="216.202" y1="55.029" x2="50.0471" y2="216.857" gradientUnits="userSpaceOnUse">
<stop stop-color="#DD7C13"/>
<stop offset="1" stop-color="#DD1313"/>
</linearGradient>
<linearGradient id="paint2_linear" x1="174.974" y1="108.638" x2="120.736" y2="183.622" gradientUnits="userSpaceOnUse">
<stop stop-color="#DD7C13"/>
<stop offset="1" stop-color="#DD1313"/>
</linearGradient>
</defs>
</svg>
